<?xml version="1.0" standalone="no"?>
<!DOCTYPE svg PUBLIC "-//W3C//DTD SVG 20010904//EN"
 "http://www.w3.org/TR/2001/REC-SVG-20010904/DTD/svg10.dtd">
<svg version="1.0" xmlns="http://www.w3.org/2000/svg"
 width="700.000000pt" height="700.000000pt" viewBox="0 0 700.000000 700.000000"
 preserveAspectRatio="xMidYMid meet">
<metadata>
Created by potrace 1.14, written by Peter Selinger 2001-2017
</metadata>
<g transform="translate(0.000000,700.000000) scale(0.100000,-0.100000)"
fill="#000000" stroke="none">
<path d="M3648 5530 c-416 -70 -728 -435 -730 -853 -2 -296 138 -562 385 -734
33 -24 65 -43 70 -43 6 0 18 -6 26 -13 32 -26 142 -62 264 -86 77 -14 252 -5
340 18 84 22 185 63 229 93 14 10 29 18 33 18 10 0 102 76 145 120 171 171
261 398 254 643 -1 70 -7 109 -30 212 -8 38 -53 141 -86 198 -130 224 -354
381 -612 426 -68 12 -218 13 -288 1z"/>
<path d="M5150 5537 c-3 -2 -25 -7 -50 -10 -25 -3 -59 -11 -77 -17 l-32 -11
40 -62 c36 -56 58 -99 113 -219 25 -56 55 -152 78 -253 27 -116 33 -409 12
-530 -32 -186 -99 -366 -190 -516 l-52 -87 41 -11 c91 -23 138 -28 238 -25 57
1 115 5 129 8 14 3 39 8 55 12 126 25 316 131 414 232 221 228 304 539 225
844 -62 242 -250 465 -478 568 -119 54 -193 71 -331 77 -71 3 -132 3 -135 0z"/>
<path d="M1620 3879 c-430 -429 -524 -518 -538 -510 -9 5 -58 52 -109 103 -50
51 -148 149 -217 218 l-126 125 -165 -165 c-91 -91 -165 -169 -165 -175 0 -5
17 -28 38 -50 21 -22 87 -94 147 -160 61 -66 129 -140 152 -165 23 -25 52 -57
65 -71 117 -128 223 -244 275 -299 34 -36 72 -78 83 -93 12 -15 27 -27 33 -27
7 0 321 310 699 688 l687 688 -27 34 c-14 19 -53 67 -85 105 -73 86 -77 91
-159 192 l-66 81 -522 -519z"/>
<path d="M3619 3206 c-2 -2 -49 -6 -104 -10 -230 -14 -538 -82 -690 -151 -17
-7 -51 -22 -76 -33 -67 -29 -194 -107 -269 -166 -225 -176 -378 -426 -424
-691 -10 -56 -14 -173 -14 -387 l-1 -308 37 -1 c206 -3 3454 0 3458 4 8 8 7
583 -1 652 -10 85 -50 216 -94 311 -133 283 -383 503 -721 634 -112 43 -284
89 -398 106 -20 3 -44 7 -52 9 -8 2 -44 7 -80 10 -36 4 -76 9 -90 11 -32 6
-475 16 -481 10z"/>
<path d="M5610 3186 c0 -2 24 -28 53 -58 210 -218 363 -501 423 -783 33 -153
37 -214 38 -557 1 -174 4 -320 8 -323 5 -6 711 -10 846 -6 l22 1 -1 323 c-1
273 -4 335 -19 407 -91 417 -402 736 -874 895 -136 46 -496 119 -496 101z"/>
</g>
</svg>
